# xmcd CD database file
#
# Track frame offsets:
#	150
#	13999
#	28877
#
# Disc length: 618 seconds
#
# Revision: 2
# Processed by: cddbd v1.5.2PL0 Copyright (c) Steve Scherf et al.
# Submitted via: CDex 1.70beta2
#
DISCID=21026803
DTITLE=FRAILHEADSQUEEZE - BEE STINGS
DYEAR=2002
DGENRE=Brass Hardcore
TTITLE0=JUST SURRENDER
TTITLE1=SMOG
TTITLE2=BEE STINGS
EXTD=YEAR: 2002
EXTT0=
EXTT1=
EXTT2=
PLAYORDER=
